# Blender v2.93.4 OBJ File: ''
# www.blender.org
mtllib SmoothCubeObj.mtl
o SmoothCube_Cube
v 1.000000 1.000000 -1.000000
v 1.000000 -1.000000 -1.000000
v 1.000000 1.000000 1.000000
v 1.000000 -1.000000 1.000000
v -1.000000 1.000000 -1.000000
v -1.000000 -1.000000 -1.000000
v -1.000000 1.000000 1.000000
v -1.000000 -1.000000 1.000000
vn 0.5773 0.5773 -0.5773
vn -0.5773 0.5773 -0.5773
vn -0.5773 0.5773 0.5773
vn 0.5773 0.5773 0.5773
vn 0.5773 -0.5773 0.5773
vn -0.5773 -0.5773 0.5773
vn -0.5773 -0.5773 -0.5773
vn 0.5773 -0.5773 -0.5773
usemtl Material
s 1
f 1//1 5//2 7//3 3//4
f 4//5 3//4 7//3 8//6
f 8//6 7//3 5//2 6//7
f 6//7 2//8 4//5 8//6
f 2//8 1//1 3//4 4//5
f 6//7 5//2 1//1 2//8
